<?xml version="1.0" standalone="no"?>
<!DOCTYPE svg PUBLIC "-//W3C//DTD SVG 20010904//EN"
 "http://www.w3.org/TR/2001/REC-SVG-20010904/DTD/svg10.dtd">
<svg version="1.0" xmlns="http://www.w3.org/2000/svg"
 width="1920.000000pt" height="1920.000000pt" viewBox="0 0 1920.000000 1920.000000"
 preserveAspectRatio="xMidYMid meet">

<g transform="translate(0.000000,1920.000000) scale(0.100000,-0.100000)"
fill="#000000" stroke="none">
<path d="M11853 15493 c-220 -235 -424 -455 -455 -488 l-55 -59 -109 32 c-261
76 -431 102 -709 109 -171 4 -250 2 -356 -11 -338 -41 -646 -154 -920 -335
-50 -34 -95 -61 -100 -61 -5 0 -261 126 -569 280 -308 154 -562 280 -565 280
-10 0 -4 -68 15 -157 77 -366 296 -700 606 -925 40 -29 73 -56 73 -59 1 -3
-29 -50 -66 -105 -135 -201 -264 -513 -312 -749 -49 -243 -51 -495 -6 -738 13
-71 26 -131 29 -134 3 -3 -45 -58 -106 -122 -199 -209 -445 -529 -635 -826
-664 -1040 -1115 -2376 -1278 -3785 -8 -74 -17 -148 -20 -163 -3 -16 -1 -27 4
-25 5 2 112 102 238 223 296 286 984 948 1091 1050 74 70 84 77 98 63 13 -13
-37 -81 -458 -619 -259 -332 -499 -646 -531 -698 -169 -267 -330 -622 -373
-821 -13 -63 -19 -180 -9 -180 16 0 1096 928 1173 1008 94 98 385 428 587 667
224 264 365 441 509 638 31 43 61 75 66 72 11 -7 3 -29 -51 -136 -310 -618
-968 -1534 -1655 -2305 -193 -217 -275 -395 -328 -711 -7 -43 2 -43 113 6 267
115 550 314 820 576 221 215 390 418 561 675 35 52 109 156 165 230 528 704
986 1457 1182 1943 27 66 53 117 58 115 6 -1 9 -7 7 -12 -2 -5 -23 -126 -47
-270 -63 -380 -108 -543 -226 -818 -77 -180 -120 -265 -225 -446 -313 -534
-786 -1123 -1448 -1799 -162 -166 -222 -220 -269 -245 -79 -43 -156 -114 -190
-177 -44 -81 -109 -349 -172 -706 -20 -115 -52 -295 -71 -400 -43 -234 -53
-401 -31 -528 29 -167 110 -288 230 -343 58 -27 70 -29 187 -29 121 0 127 1
193 33 41 20 96 60 136 98 l68 64 11 -38 c22 -73 101 -206 149 -250 73 -67
133 -94 230 -100 91 -5 147 6 228 46 129 63 266 192 340 318 73 125 175 368
366 874 298 790 637 1695 635 1696 -4 4 -115 15 -428 40 -192 16 -348 31 -348
34 1 3 10 16 21 30 l21 25 1387 5 c1372 5 1386 5 1421 25 87 51 137 193 127
359 -9 150 -57 255 -137 297 -32 17 -62 19 -363 19 l-328 0 136 149 c606 664
1031 1415 1321 2332 86 273 179 696 234 1059 84 559 107 753 131 1120 16 232
16 806 0 1005 -63 822 -267 1401 -616 1751 -56 56 -110 106 -121 112 -17 9
-43 -4 -175 -88 -85 -54 -155 -97 -157 -95 -4 3 16 35 233 380 76 121 160 265
186 320 88 183 125 363 116 565 -5 122 -29 211 -66 244 -18 17 -35 0 -418
-411z m-350 -1517 c55 -27 96 -74 215 -252 140 -208 154 -248 160 -446 6 -246
-36 -436 -134 -600 -110 -183 -279 -303 -563 -402 -188 -66 -279 -80 -511 -80
-234 -1 -306 10 -503 75 -66 21 -122 37 -125 35 -8 -9 62 -127 113 -188 217
-263 607 -354 1090 -252 66 13 149 30 185 36 85 14 297 4 380 -17 226 -59 382
-214 447 -445 16 -58 18 -108 18 -445 l0 -380 -43 -165 c-203 -780 -450 -1450
-791 -2145 -200 -408 -388 -743 -615 -1097 l-101 -158 -331 0 -331 0 -239 -94
c-374 -147 -525 -206 -530 -206 -2 0 23 34 56 75 335 423 765 1095 1155 1810
167 307 614 1203 649 1303 68 193 106 387 113 587 17 486 -180 842 -589 1068
-111 61 -250 84 -404 68 -505 -56 -1096 -408 -1808 -1078 -60 -56 -112 -101
-114 -98 -3 2 15 38 39 80 170 298 601 719 1122 1099 60 43 105 82 100 87 -4
4 -62 38 -128 74 -66 37 -151 88 -190 112 -96 62 -324 234 -359 272 -33 34
-38 31 74 57 207 47 378 112 399 152 9 17 3 20 -56 31 -231 43 -472 239 -553
452 -49 131 -48 317 3 441 12 30 67 130 121 222 79 133 106 171 131 183 59 28
76 14 252 -203 89 -109 162 -206 162 -215 1 -9 -27 -42 -61 -72 l-61 -56 -27
19 c-55 39 -100 165 -100 282 0 44 -25 63 -71 53 -42 -9 -52 -37 -57 -155 -6
-167 26 -275 111 -367 71 -77 102 -88 252 -88 l131 0 -14 -40 c-23 -65 -41
-184 -42 -268 0 -119 24 -218 81 -335 42 -87 64 -117 140 -195 l89 -92 -7 95
c-24 298 4 563 73 707 32 67 45 81 191 207 l158 136 64 0 c61 0 69 -3 197 -75
73 -42 152 -82 175 -90 55 -20 147 -19 206 1 121 41 348 232 407 343 75 141
27 317 -111 402 l-35 22 -65 -65 -65 -65 46 -47 c50 -51 73 -108 62 -152 -11
-42 -162 -192 -221 -220 -60 -29 -140 -31 -209 -8 -46 16 -170 118 -164 134 8
20 718 625 753 641 50 24 152 22 208 -5z"/>
</g>
</svg>
